<?xml version="1.0" encoding="iso-8859-1"?>
<!-- Uploaded to: SVG Repo, www.svgrepo.com, Generator: SVG Repo Mixer Tools -->
<svg height="800px" width="800px" version="1.1" id="Layer_1" xmlns="http://www.w3.org/2000/svg" xmlns:xlink="http://www.w3.org/1999/xlink" 
	 viewBox="0 0 512 512" xml:space="preserve">
<path style="fill:#75CB08;" d="M255.99,40.622c-135.531,0-245.791,88.172-245.791,196.553c0,54.493,28.34,106.544,77.993,143.643
	l-27.791,80.031c-1.014,2.915-0.241,6.154,1.976,8.297c1.505,1.458,3.493,2.233,5.517,2.233c0.953,0,1.921-0.172,2.844-0.529
	l116.727-44.894c22.26,5.148,45.3,7.757,68.527,7.757c135.54-0.002,245.809-88.166,245.809-196.537
	C501.799,128.795,391.53,40.622,255.99,40.622z M352.594,293.771c-25.686,16.131-59.994,25.013-96.604,25.013
	s-70.916-8.884-96.601-25.013c-24.537-15.409-38.05-35.511-38.05-56.595c0-21.096,13.513-41.201,38.05-56.612
	c25.683-16.134,59.991-25.017,96.601-25.017c36.613,0,70.919,8.884,96.604,25.017c24.537,15.412,38.05,35.516,38.05,56.612
	C390.644,258.261,377.131,278.363,352.594,293.771z"/>
<g>
	<path style="fill:#5C802A;" d="M67.894,481.577c-4.739,0-9.218-1.814-12.616-5.109c-5.046-4.876-6.821-12.328-4.509-18.972
		l25.381-73.092C27.655,345.738,0,292.459,0,237.175C0,123.173,114.837,30.423,255.99,30.423
		c141.162,0,256.008,92.748,256.01,206.752c0,113.994-114.846,206.734-256.009,206.734c-22.922,0-45.7-2.463-67.754-7.325
		L74.398,480.367C72.33,481.169,70.136,481.577,67.894,481.577z M255.99,50.822c-129.905,0-235.591,83.598-235.591,186.354
		c0,51.006,26.935,100.384,73.898,135.472c3.56,2.659,4.988,7.318,3.53,11.516L71.64,459.574l112.163-43.139
		c1.9-0.732,3.975-0.878,5.959-0.418c21.504,4.973,43.786,7.494,66.23,7.494c129.915-0.001,235.61-83.591,235.61-186.336
		C491.6,134.419,385.904,50.822,255.99,50.822z M255.99,328.983c-38.502,0-74.736-9.438-102.026-26.575
		c-27.615-17.344-42.824-40.51-42.824-65.233c0-24.732,15.208-47.905,42.824-65.249c27.283-17.14,63.517-26.579,102.026-26.579
		c38.506,0,74.74,9.439,102.028,26.579c27.616,17.347,42.824,40.519,42.824,65.249c0,24.726-15.209,47.892-42.825,65.233h0.001
		C330.731,319.545,294.496,328.983,255.99,328.983z M255.99,165.746c-34.72,0-67.101,8.329-91.177,23.453
		c-21.458,13.478-33.276,30.516-33.276,47.976c0,17.451,11.817,34.484,33.275,47.958c24.081,15.122,56.462,23.451,91.177,23.451
		c34.717,0,67.099-8.329,91.179-23.451h0.001c21.457-13.473,33.274-30.505,33.274-47.958c0-17.459-11.818-34.497-33.276-47.976
		C323.088,174.076,290.707,165.746,255.99,165.746z"/>
	<path style="fill:#5C802A;" d="M420.673,344.733c-2.568,0-5.136-0.963-7.119-2.898c-4.033-3.932-4.114-10.391-0.182-14.423
		c2.109-2.163,4.159-4.403,6.094-6.658c3.666-4.276,10.105-4.77,14.382-1.103s4.77,10.106,1.103,14.382
		c-2.216,2.584-4.563,5.149-6.974,7.621C425.978,343.704,423.327,344.733,420.673,344.733z"/>
	<path style="fill:#5C802A;" d="M254.938,406.769c-5.632,0-10.199-4.567-10.199-10.199c0-5.632,4.567-10.199,10.199-10.199
		c46.389,0,91.23-11.89,126.261-33.481c4.799-2.955,11.079-1.464,14.034,3.331c2.956,4.796,1.465,11.078-3.331,14.034
		C353.697,393.8,305.056,406.769,254.938,406.769z"/>
</g>
</svg>