<svg class="h-5 w-5" fill="#524514" height="200px" width="200px" version="1.1" id="Layer_1" xmlns="http://www.w3.org/2000/svg" xmlns:xlink="http://www.w3.org/1999/xlink" viewBox="0 0 511.999 511.999" xml:space="preserve" stroke="#524514"><g id="SVGRepo_bgCarrier" stroke-width="0"></g><g id="SVGRepo_tracerCarrier" stroke-linecap="round" stroke-linejoin="round"></g><g id="SVGRepo_iconCarrier"> <g> <g> <path d="M151.554,306.492h74.589c10.232,0,18.525-8.294,18.525-18.526c-0.001-10.23-8.294-18.526-18.526-18.526h-63.712 l-28.025-50.231l27.238,30.295l0.374-23.751c0.271-17.225-13.564-31.387-30.797-31.511l-28.536-0.204 c-17.242-0.124-31.292,13.856-31.245,31.107l0.289,105.218c0.039,14.352,9.941,26.9,24.089,30.145H56.822L30.383,226.011 c-1.634-8.31-9.687-13.721-18.005-12.089c-8.309,1.634-13.722,9.695-12.088,18.005l28.871,146.875 c1.413,7.191,7.718,12.378,15.047,12.378h2.64l-32.624,84.594c-2.032,5.269,0.592,11.186,5.859,13.218 c5.257,2.029,11.182-0.583,13.218-5.859l35.462-91.951h58.235l20.029,51.935l-6.426,16.239 c-4.518,11.417,1.075,24.333,12.491,28.851c11.409,4.515,24.33-1.067,28.851-12.491l50.463-127.526 c5.808-14.676-5.156-30.523-20.736-30.41l-68.415,0.2c-9.493-1.504-16.385-7.553-19.422-15.417 c-6.993-18.11-13.051-37.342-17.274-57.212l28.815,51.645C138.647,302.857,144.837,306.492,151.554,306.492z M151.553,391.179 L151.553,391.179c8.469,0,15.334-6.865,15.334-15.336c0-5.801-3.222-10.846-7.973-13.452l20.08-0.059l-20.868,52.735 l-9.213-23.889H151.553z"></path> </g> </g> <g> <g> <circle cx="141.063" cy="139.167" r="40.89"></circle> </g> </g> <g> <g> <path d="M365.638,101.089c-22.19,3.39-37.431,24.126-34.042,46.315c0.193,1.256,0.448,2.487,0.748,3.695l76.996-25.366 C402.364,108.821,384.529,98.203,365.638,101.089z"></path> </g> </g> <g> <g> <path d="M483.012,379.467l28.699-145.998c1.624-8.26-3.755-16.273-12.016-17.896c-8.267-1.62-16.274,3.757-17.896,12.017 l-26.281,133.693h-38.76c14.077-3.229,23.906-15.712,23.945-29.965l0.286-104.588c0.023-8.231-3.247-16.13-9.08-21.938 s-16.167-7.771-21.978-8.983c-7.386-1.542-29.47-6.507-29.47-6.507l37.889-12.875c9.629-3.271,14.783-13.731,11.51-23.36 c-3.271-9.63-13.732-14.782-23.36-11.51l-88.523,30.081c-7.442,2.528-12.458,9.501-12.489,17.361 c-0.032,7.86,4.927,14.872,12.348,17.461l57.512,20.065l-24.318-1.819c0,0,0.441,35.958,1.365,94.247l-50.801-0.149 c-0.023,0-0.043,0-0.065,0c-15.576,0-26.284,15.732-20.548,30.229l50.162,126.763c4.493,11.354,17.336,16.904,28.678,12.416 c11.348-4.49,16.907-17.33,12.417-28.678l-6.387-16.142l19.909-51.623h57.887l35.25,91.401c2.022,5.245,7.911,7.841,13.136,5.825 c5.237-2.02,7.844-7.902,5.825-13.138l-32.43-84.086h2.624C475.341,391.77,481.608,386.615,483.012,379.467z M354.821,415.517 l-20.744-52.421l19.961,0.059c-4.723,2.59-7.925,7.606-7.925,13.372c0,8.418,6.825,15.243,15.243,15.243h2.624L354.821,415.517z"></path> </g> </g> <g> <g> <path d="M462.867,84.746c-4.504,0-8.151,3.753-8.151,8.257c0,4.397,3.539,8.257,8.151,8.257c4.611,0,8.256-3.86,8.256-8.257 C471.122,88.499,467.369,84.746,462.867,84.746z"></path> </g> </g> <g> <g> <path d="M464.258,22.229c-14.476,0-21.125,8.578-21.125,14.369c0.001,4.181,3.541,6.112,6.436,6.112 c5.791,0,3.432-8.257,14.369-8.257c5.362,0,9.652,2.359,9.652,7.292c0,5.791-6.005,9.115-9.544,12.118 c-3.11,2.68-7.186,7.077-7.186,16.3c0,5.576,1.502,7.185,5.898,7.185c5.255,0,6.326-2.359,6.326-4.397 c0-5.575,0.108-8.793,6.005-13.404c2.895-2.252,12.01-9.544,12.01-19.624S477.984,22.229,464.258,22.229z"></path> </g> </g> </g></svg>