<svg class="h-5 w-5" id="Layer_1" enable-background="new 0 0 512 512" viewBox="0 0 512 512" xmlns="http://www.w3.org/2000/svg"><path clip-rule="evenodd" d="m256 511.44c140.724 0 255.5-114.655 255.5-255.379s-114.776-255.501-255.5-255.501-255.5 114.776-255.5 255.5 114.776 255.38 255.5 255.38z" fill="#dcf5e1" fill-rule="evenodd"/><path d="m395.105 176.152h-48.938v-59.257c0-15.381-12.505-27.895-27.877-27.895h-124.58c-15.381 0-27.895 12.514-27.895 27.895v59.257h-48.92c-15.382 0-27.896 12.514-27.896 27.895v124.561c0 15.382 12.514 27.896 27.896 27.896h29.512c5.765 0 10.439-4.673 10.439-10.439 0-5.765-4.674-10.439-10.439-10.439h-29.512c-3.87 0-7.018-3.148-7.018-7.018v-124.561c0-3.804 3.213-7.017 7.018-7.017h278.209c3.804 0 7.017 3.213 7.017 7.017v124.561c0 3.87-3.148 7.018-7.017 7.018h-29.513c-5.765 0-10.439 4.673-10.439 10.439 0 5.765 4.673 10.439 10.439 10.439h29.513c15.381 0 27.895-12.514 27.895-27.896v-124.561c.001-15.381-12.513-27.895-27.894-27.895zm-69.816 0h-138.596v-59.257c0-3.87 3.148-7.017 7.017-7.017h124.58c3.859 0 6.999 3.148 6.999 7.017zm10.439 69.4h-159.474c-5.765 0-10.439 4.673-10.439 10.439v139.114c0 15.381 12.514 27.895 27.895 27.895h124.58c15.372 0 27.877-12.514 27.877-27.895v-139.115c0-5.765-4.674-10.438-10.439-10.438zm-10.439 149.553c0 3.87-3.14 7.017-6.999 7.017h-124.58c-3.804 0-7.017-3.213-7.017-7.017v-128.676h138.596zm-120.438-98.007c0-5.765 4.673-10.439 10.439-10.439h81.42c5.765 0 10.439 4.673 10.439 10.439 0 5.765-4.673 10.439-10.439 10.439h-81.42c-5.765 0-10.439-4.674-10.439-10.439zm0 74.355c0-5.765 4.673-10.439 10.439-10.439h81.42c5.765 0 10.439 4.673 10.439 10.439 0 5.765-4.673 10.439-10.439 10.439h-81.42c-5.765 0-10.439-4.673-10.439-10.439zm0-37.168c0-5.765 4.673-10.439 10.439-10.439h81.42c5.765 0 10.439 4.673 10.439 10.439 0 5.765-4.673 10.439-10.439 10.439h-81.42c-5.765 0-10.439-4.673-10.439-10.439z" fill="#2da74e"/></svg>