<svg class="h-5 w-5" height="512" viewBox="0 0 64 64" width="512" xmlns="http://www.w3.org/2000/svg"><g id="school-student-learning-study-education"><path d="m3 3h58v34h-58z" fill="#787680"/><path d="m6 6h52v28h-52z" fill="#64c1f7"/><path d="m26.14 28.53 3.28-4.21 3.33 2.5-4.17 7.18h-19.58v-3a4 4 0 0 1 4-4h11z" fill="#dd636e"/><path d="m34.33 23.58a1.871 1.871 0 0 1 -.27.99l-1.31 2.25-3.33-2.5 1.49-1.92a1.914 1.914 0 0 1 3.42 1.18z" fill="#ffcbbe"/><path d="m41 59v2h-18v-2a4 4 0 0 1 4-4h10a4 4 0 0 1 4 4z" fill="#365e7d"/><path d="m30 51v4a2 2 0 0 0 4 0v-4z" fill="#ffcbbe"/><path d="m59 59v2h-18v-2a4 4 0 0 1 4-4h10a4 4 0 0 1 4 4z" fill="#4a80aa"/><path d="m48 51v4a2 2 0 0 0 4 0v-4z" fill="#ffcbbe"/><path d="m30 51.87a3.992 3.992 0 0 1 -3-3.87v-3a4 4 0 0 1 4-4h2a4 4 0 0 1 4 4v3a3.992 3.992 0 0 1 -3 3.87 3.657 3.657 0 0 1 -1 .13h-2a3.657 3.657 0 0 1 -1-.13z" fill="#ffddce"/><path d="m48 51.87a3.992 3.992 0 0 1 -3-3.87v-3a4 4 0 0 1 4-4h2a4 4 0 0 1 4 4v3a3.992 3.992 0 0 1 -3 3.87 3.657 3.657 0 0 1 -1 .13h-2a3.657 3.657 0 0 1 -1-.13z" fill="#ffddce"/><path d="m59 59v2h-18v-2a4 4 0 0 1 4-4h10a4 4 0 0 1 4 4z" fill="#4a80aa"/><path d="m48 51v4a2 2 0 0 0 4 0v-4z" fill="#ffcbbe"/><path d="m48 51.87a3.992 3.992 0 0 1 -3-3.87v-3a4 4 0 0 1 4-4h2a4 4 0 0 1 4 4v3a3.992 3.992 0 0 1 -3 3.87 3.657 3.657 0 0 1 -1 .13h-2a3.657 3.657 0 0 1 -1-.13z" fill="#ffddce"/><path d="m23 59v2h-18v-2a4 4 0 0 1 4-4h10a4 4 0 0 1 4 4z" fill="#4a80aa"/><path d="m12 51v4a2 2 0 0 0 4 0v-4z" fill="#ffcbbe"/><path d="m12 51.87a3.992 3.992 0 0 1 -3-3.87v-3a4 4 0 0 1 4-4h2a4 4 0 0 1 4 4v3a3.992 3.992 0 0 1 -3 3.87 3.657 3.657 0 0 1 -1 .13h-2a3.657 3.657 0 0 1 -1-.13z" fill="#ffddce"/><path d="m21 27-3 4-3-4z" fill="#fff"/><path d="m23 15h-13a5 5 0 0 1 5-5 4.949 4.949 0 0 1 3.1 1.11 3.824 3.824 0 0 1 .9-.11 4 4 0 0 1 4 4z" fill="#6a563d"/><path d="m16 21h4v6h-4z" fill="#ffcbbe"/><path d="m13 15h10a0 0 0 0 1 0 0v4a5 5 0 0 1 -5 5 5 5 0 0 1 -5-5v-4a0 0 0 0 1 0 0z" fill="#ffddce"/><path d="m38 10h8v2h-8z"/><path d="m48 10h6v2h-6z"/><path d="m38 14h4v2h-4z"/><path d="m44 14h10v2h-10z"/><path d="m38 18h6v2h-6z"/><path d="m46 18h8v2h-8z"/><path d="m38 22h16v2h-16z"/><path d="m38 26h16v2h-16z"/><path d="m55 54h-2v-1.42a5.014 5.014 0 0 0 3-4.58v-3a5 5 0 0 0 -5-5h-2a5 5 0 0 0 -5 5v3a5.014 5.014 0 0 0 3 4.58v1.42h-2a4.953 4.953 0 0 0 -3.64 1.6 5 5 0 0 0 -4.36-2.6h-2v-1.42a5.014 5.014 0 0 0 3-4.58v-3a5 5 0 0 0 -5-5h-2a5 5 0 0 0 -5 5v3a5.014 5.014 0 0 0 3 4.58v1.42h-2a5 5 0 0 0 -4.36 2.6 4.953 4.953 0 0 0 -3.64-1.6h-2v-1.42a5.014 5.014 0 0 0 3-4.58v-3a5 5 0 0 0 -5-5h-2a5 5 0 0 0 -5 5v3a5.014 5.014 0 0 0 3 4.58v1.42h-2a5 5 0 0 0 -5 5v2a1 1 0 0 0 1 1h54a1 1 0 0 0 1-1v-2a5 5 0 0 0 -5-5zm-45-6v-3a3.009 3.009 0 0 1 3-3h2a3.009 3.009 0 0 1 3 3v3a3.009 3.009 0 0 1 -3 3h-2a3.009 3.009 0 0 1 -3-3zm5 5v2a1 1 0 0 1 -2 0v-2zm7 7h-16v-1a3.009 3.009 0 0 1 3-3h2.18a2.988 2.988 0 0 0 5.64 0h2.18a3.009 3.009 0 0 1 3 3zm6-13v-3a3.009 3.009 0 0 1 3-3h2a3.009 3.009 0 0 1 3 3v3a3.009 3.009 0 0 1 -3 3h-2a3.009 3.009 0 0 1 -3-3zm5 5v2a1 1 0 0 1 -2 0v-2zm7 8h-16v-2a3.009 3.009 0 0 1 3-3h2.18a2.988 2.988 0 0 0 5.64 0h2.18a3.009 3.009 0 0 1 3 3zm6-12v-3a3.009 3.009 0 0 1 3-3h2a3.009 3.009 0 0 1 3 3v3a3.009 3.009 0 0 1 -3 3h-2a3.009 3.009 0 0 1 -3-3zm5 5v2a1 1 0 0 1 -2 0v-2zm7 7h-16v-1a3.009 3.009 0 0 1 3-3h2.18a2.988 2.988 0 0 0 5.64 0h2.18a3.009 3.009 0 0 1 3 3z"/><path d="m61 2h-58a1 1 0 0 0 -1 1v34a1 1 0 0 0 1 1h58a1 1 0 0 0 1-1v-34a1 1 0 0 0 -1-1zm-1 34h-56v-32h56z"/><path d="m58 5h-52a1 1 0 0 0 -1 1v28a1 1 0 0 0 1 1h52a1 1 0 0 0 1-1v-28a1 1 0 0 0 -1-1zm-48 28v-2a3.009 3.009 0 0 1 3-3h1.5l2.7 3.6a1 1 0 0 0 1.6 0l2.7-3.6h2.18l1.03.74-.5.65 1.58 1.22 3.82-4.9 1.83 1.37-3.44 5.92zm4-17h8v3a4 4 0 0 1 -8 0zm-2.87-2a3.966 3.966 0 0 1 6.35-2.11 1 1 0 0 0 .85.19 3.3 3.3 0 0 1 .67-.08 3.014 3.014 0 0 1 2.83 2zm5.87 12v-1.09a6.638 6.638 0 0 0 1 .09 6.638 6.638 0 0 0 1-.09v1.09zm2 2-1 1.33-1-1.33zm11.83-3.87.87-1.12a.9.9 0 0 1 1.23-.18.882.882 0 0 1 .4.75.947.947 0 0 1 -.13.49l-.75 1.27zm26.17 8.87h-26.68l4.59-7.91a2.816 2.816 0 0 0 .42-1.51 2.889 2.889 0 0 0 -.94-2.12l2.5-5.01-1.78-.9-2.56 5.12a2.9 2.9 0 0 0 -2.43 1.12l-4.18 5.37-1.36-.97a1 1 0 0 0 -.58-.19h-3v-1.81a6 6 0 0 0 3-5.19v-4a5 5 0 0 0 -5-5 4.865 4.865 0 0 0 -.65.05 5.855 5.855 0 0 0 -3.35-1.05 6 6 0 0 0 -6 6 1 1 0 0 0 1 1h2v3a6 6 0 0 0 3 5.19v1.81h-2a5 5 0 0 0 -5 5v2h-1v-26h50z"/></g></svg>