<svg class="h-5 w-5" id="_x33_0" enable-background="new 0 0 64 64" height="512" viewBox="0 0 64 64" width="512" xmlns="http://www.w3.org/2000/svg"><g><g><g><path d="m32 12c0 2.21-1.79 4-4 4h-7.9c-1.76 0-3.38-.74-4.52-1.95-.72 1.5-1.82 2.78-3.21 3.7l-.37.25h-1c-.48 0-.94.12-1.34.32l-.94-1.89c-.47-.94-.72-1.98-.72-3.03 0-1.07.25-2.11.72-3.04.46-.93 1.14-1.76 2-2.4l1.28-.96c.29-1.46 1.07-2.7 2.15-3.59 1.09-.89 2.47-1.41 3.95-1.41h6.16c5.89 0 10.77 4.35 11.61 10 .09.57.13 1.15.13 1.74 0 1.2-.18 2.39-.54 3.53-.09.28-.19.56-.3.83l-.24.6c-.52-.44-1.19-.7-1.92-.7h-1.06c.04-.72.06-1.44.06-2.17z" fill="#656d78"/></g><g><path d="m24.33 49.3v.01c-.2.24-.4.48-.6.71l-1.73 1.98-1.73-1.98c-.2-.23-.4-.47-.6-.71 0 0 0 0 0-.01l1.33-5.3h2z" fill="#e6e9ed"/></g><g><path d="m24.54 41.69-1.54 2.31h-2l-1.54-2.31 2.54-1.69z" fill="#ccd1d9"/></g><g><path d="m24.54 41.69 3.02 2.01c-.78 2.01-1.87 3.91-3.23 5.6l-1.33-5.3z" fill="#ff826e"/></g><g><path d="m19.46 41.69 1.54 2.31-1.33 5.3c-1.36-1.69-2.45-3.59-3.23-5.6z" fill="#ff826e"/></g><g><path d="m27 36 2 .27c-.03 2.56-.53 5.08-1.44 7.43l-3.02-2.01-2.54-1.69z" fill="#fc6e51"/></g><g><path d="m22 40-2.54 1.69-3.02 2.01c-.91-2.35-1.4-4.87-1.44-7.43l2-.27z" fill="#fc6e51"/></g><g><path d="m40.8 42h-7.66l.73-5.07c3.02.58 5.53 2.48 6.93 5.07z" fill="#fcd770"/></g><g><path d="m24.19 51.37-2.19.63-2.19-.63c-1.56-.45-3.03-1.14-4.34-2.04-1.32-.91-2.49-2.03-3.47-3.33l1-2-2-1-.87-6.07c-4.69.9-8.13 5-8.13 9.83v11.24c0 2.21 1.79 4 4 4h14v-6h2 4l3.66-1.83c.22-.11.47-.17.72-.17.9 0 1.62.72 1.62 1.62v-9.62c-1.95 2.6-4.69 4.48-7.81 5.37z" fill="#fcd770"/></g><g><path d="m26 56v6h-6v-6h2z" fill="#ffc729"/></g><g><path d="m33.87 36.93-.73 5.07h-.14c-.55 0-1 .45-1 1v3c-1.95 2.6-4.69 4.48-7.81 5.37l-2.19.63 1.73-1.98c.2-.23.4-.47.6-.71 0 0 0 0 0-.01 1.36-1.69 2.45-3.59 3.23-5.6.91-2.35 1.41-4.87 1.44-7.43l4.32.57c.18.02.37.05.55.09z" fill="#ffc729"/></g><g><path d="m20.27 50.02 1.73 1.98-2.19-.63c-1.56-.45-3.03-1.14-4.34-2.04-1.32-.91-2.49-2.03-3.47-3.33l1-2-2-1-.87-6.07c.18-.03.36-.06.55-.09l4.32-.57c.04 2.56.53 5.08 1.44 7.43.78 2.01 1.87 3.91 3.23 5.6v.01c.2.24.4.48.6.71z" fill="#ffc729"/></g><g><path d="m44 58v3c0 .55-.45 1-1 1h-9c1.1 0 2-.9 2-2v-2z" fill="#969faa"/></g><g><path d="m44 43v3h-12v-3c0-.55.45-1 1-1h.14 7.66 2.2c.55 0 1 .45 1 1z" fill="#969faa"/></g><g><path d="m44 46v12h-8c0-1.1-.9-2-2-2h-2v-.38-9.62z" fill="#69d6f4"/></g><g><path d="m62 13v18c0 .55-.45 1-1 1h-26c-.55 0-1-.45-1-1v-7.17-.01c.43-.14.81-.39 1.12-.7.54-.54.88-1.29.88-2.12 0-.93-.42-1.76-1.08-2.3l.24-.6c.11-.27.21-.55.3-.83 1.28 1.66 3.28 2.73 5.54 2.73h5v1c0 .55.45 1 1 1h2c.55 0 1-.45 1-1v-1h5c3.87 0 7-3.13 7-7z" fill="#cf9e76"/></g><g><path d="m61 12c.55 0 1 .45 1 1 0 3.87-3.13 7-7 7h-5v-1c0-.55-.45-1-1-1h-2c-.55 0-1 .45-1 1v1h-5c-2.26 0-4.26-1.07-5.54-2.73.36-1.14.54-2.33.54-3.53 0-.59-.04-1.17-.13-1.74h6.13 12z" fill="#d3a06c"/></g><g><path d="m50 20v1c0 .55-.45 1-1 1h-2c-.55 0-1-.45-1-1v-1-1c0-.55.45-1 1-1h2c.55 0 1 .45 1 1z" fill="#fcd770"/></g><g><path d="m36 58v2c0 1.1-.9 2-2 2h-8v-6l3.66-1.83c.22-.11.47-.17.72-.17.9 0 1.62.72 1.62 1.62v.38h2c1.1 0 2 .9 2 2z" fill="#f0d0b4"/></g><g><path d="m34.92 18.7c.66.54 1.08 1.37 1.08 2.3 0 .83-.34 1.58-.88 2.12-.31.31-.69.56-1.12.7-.31.12-.65.18-1 .18h-2.12c.43-1.14.71-2.33.85-3.56l.03-.28c.08-.72.14-1.44.18-2.16h1.06c.73 0 1.4.26 1.92.7z" fill="#f0d0b4"/></g><g><path d="m32 12v3.83c0 .73-.02 1.45-.06 2.17s-.1 1.44-.18 2.16l-.03.28c-.14 1.23-.42 2.42-.85 3.56-.3.8-.66 1.56-1.09 2.29-.95 1.61-2.2 3.05-3.71 4.21-.15.12-.3.23-.45.34-1.06.75-2.33 1.16-3.63 1.16s-2.57-.41-3.63-1.16c-.15-.11-.3-.22-.45-.34-2.19-1.69-3.84-3.95-4.8-6.5-.43-1.14-.71-2.33-.85-3.56l-.27-2.44.37-.25c1.39-.92 2.49-2.2 3.21-3.7 1.14 1.21 2.76 1.95 4.52 1.95h7.9c2.21 0 4-1.79 4-4z" fill="#f0d0b4"/></g><g><path d="m26.08 30.5.92 5.5-5 4-5-4 .92-5.5c.15.12.3.23.45.34 1.06.75 2.33 1.16 3.63 1.16s2.57-.41 3.63-1.16c.15-.11.3-.22.45-.34z" fill="#f0d0b4"/></g><g><path d="m13.12 24h-2.12c-.83 0-1.58-.34-2.12-.88s-.88-1.29-.88-2.12c0-1.18.67-2.19 1.66-2.68.4-.2.86-.32 1.34-.32h1l.27 2.44c.14 1.23.42 2.42.85 3.56z" fill="#f0d0b4"/></g></g><g><circle cx="18" cy="20" r="1"/><circle cx="26" cy="20" r="1"/><path d="m24 25.764c-.381.762-1.147 1.236-2 1.236s-1.619-.474-2-1.236l-.105-.211-1.789.895.105.21c.722 1.445 2.174 2.342 3.789 2.342s3.067-.897 3.789-2.342l.105-.211-1.789-.895z"/><path d="m61 11h-6v-6c0-1.103-.897-2-2-2h-10c-1.103 0-2 .897-2 2v6h-4.304c-1.258-5.711-6.352-10-12.435-10h-6.162c-3.298 0-6.177 2.256-6.991 5.419l-.991.743c-1.952 1.464-3.117 3.795-3.117 6.234 0 1.204.284 2.41.822 3.485l.56 1.119c-.84.734-1.382 1.8-1.382 3 0 2.206 1.794 4 4 4h1.464c.97 2.268 2.463 4.288 4.374 5.891l-.703 4.216-5.588.745c-5.443.725-9.547 5.413-9.547 10.903v11.245c0 2.757 2.243 5 5 5h37c1.103 0 2-.897 2-2v-18c0-1.103-.897-2-2-2h-1.648c-1.726-2.796-4.625-4.712-7.899-5.148l-5.588-.745-.703-4.216c1.911-1.603 3.404-3.623 4.374-5.891h1.464v6c0 1.103.897 2 2 2h26c1.103 0 2-.897 2-2v-18c0-1.103-.897-2-2-2zm-8-6v2h-10v-2zm-10 4h10v2h-10zm18 4c0 3.309-2.691 6-6 6h-4c0-1.103-.897-2-2-2h-2c-1.103 0-2 .897-2 2h-4c-1.714 0-3.304-.719-4.441-1.978.286-1.069.441-2.166.441-3.283 0-.25-.023-.493-.037-.739zm-11.999 8h-2.001v-2h2zm-39.39-5.013c-.4-.799-.611-1.695-.611-2.591 0-1.813.866-3.546 2.316-4.634l1.589-1.191.075-.375c.487-2.431 2.639-4.196 5.119-4.196h6.162c5.922 0 10.739 4.817 10.739 10.739 0 1.208-.212 2.389-.608 3.525-.435-.163-.901-.264-1.392-.264h-.033c.012-.391.033-.782.033-1.171v-3.829c0-1.654-1.346-3-3-3s-3 1.346-3 3v1h2v-1c0-.551.448-1 1-1s1 .449 1 1c0 1.654-1.346 3-3 3h-7.901c-2.479 0-4.632-1.765-5.118-4.196l-1.961.392c.221 1.107.696 2.111 1.351 2.964-.63 1.101-1.495 2.055-2.556 2.762l-.118.078h-.697c-.287 0-.566.033-.837.091zm1.389 7.013c-1.103 0-2-.897-2-2s.897-2 2-2h.105l.171 1.549c.093.836.273 1.651.495 2.451zm14.348 9.172.569 3.414-3.917 3.133-3.917-3.133.569-3.414c1.03.539 2.168.828 3.348.828s2.318-.289 3.348-.828zm11.468 24.828c-.414-1.161-1.514-2-2.816-2h-1v-8h10v10zm-24.9-14.66-.652-4.566 2.802-.374c.292 4.629 2.022 9.055 4.952 12.657-2.268-.855-4.299-2.303-5.84-4.177l1.164-2.328zm10.304 2.66 1.012 4.047c-.087.103-.163.213-.252.315l-.98 1.119-.979-1.119c-.089-.102-.165-.212-.252-.315l1.011-4.047zm-3.036-1.921.739 1.108-.691 2.766c-.59-.92-1.101-1.884-1.535-2.882zm5.816 13.921v4h-4v-4zm.764-2h-2.764v-2.246l1.467-.419c2.443-.698 4.691-1.993 6.533-3.729v4.476c-.199-.049-.404-.082-.618-.082-.404 0-.81.096-1.171.276zm6.49-13.852c-.734.296-1.254 1.013-1.254 1.852v2.645c-1.563 1.985-3.66 3.526-6.021 4.416 2.932-3.603 4.662-8.03 4.955-12.661l2.802.374zm-7.486 5.805-.691-2.766.739-1.108 1.487.992c-.433.998-.944 1.962-1.535 2.882zm-2.303-3.953h-.93l-.687-1.03 1.152-.768 1.152.768zm-5.756-5.952 3.599 2.879-3.333 2.222c-.515-1.618-.825-3.3-.922-5.014zm-13.709 20.952v-11.245c0-3.967 2.621-7.418 6.3-8.581l.784 5.485 1.574.787-.829 1.658.371.496c2.064 2.753 5.023 4.79 8.333 5.735l1.467.419v2.246h-12v-10h-2v12h12v4h-13c-1.654 0-3-1.346-3-3zm32 2c0 .551-.448 1-1 1h-7v-4.382l3.105-1.553c.39-.194.895.117.895.553v1.382h3c.552 0 1 .449 1 1zm1.829 1c.11-.313.171-.649.171-1v-1h6v2zm6.171-16h-10v-2h10zm-4.1-4h-4.604l.402-2.814c1.64.519 3.099 1.496 4.202 2.814zm-10.952-3.865c-.096 1.713-.407 3.395-.922 5.014l-3.333-2.222 3.599-2.879zm2.787-16.808c-.433 3.889-2.506 7.423-5.688 9.697-1.789 1.277-4.305 1.278-6.094 0-3.183-2.273-5.256-5.807-5.688-9.696l-.204-1.834c1.115-.77 2.062-1.754 2.79-2.889 1.203.878 2.676 1.395 4.248 1.395h7.901c1.128 0 2.158-.39 2.996-1.022-.005 1.354-.079 2.722-.229 4.069zm1.494 2.673c.221-.801.402-1.615.495-2.451l.031-.281c.046-.42.071-.845.105-1.268h.14c1.103 0 2 .897 2 2s-.897 2-2 2zm28.771 8h-26v-6.556c1.19-.694 2-1.97 2-3.444 0-.419-.083-.815-.202-1.194 1.244.77 2.687 1.194 4.202 1.194h4c0 1.103.897 2 2 2h2c1.103 0 2-.897 2-2h4c2.39 0 4.533-1.059 6-2.726z"/></g></g></svg>