<svg class="h-5 w-5" height="200px" width="200px" version="1.1" id="Layer_1" xmlns="http://www.w3.org/2000/svg" xmlns:xlink="http://www.w3.org/1999/xlink" viewBox="0 0 512 512" xml:space="preserve" fill="#000000"><g id="SVGRepo_bgCarrier" stroke-width="0"></g><g id="SVGRepo_tracerCarrier" stroke-linecap="round" stroke-linejoin="round"></g><g id="SVGRepo_iconCarrier"> <circle style="fill:#D6D6D6;" cx="256" cy="41.248" r="41.248"></circle> <g> <path style="fill:#333333;" d="M254.048,178.4l-39.856-86.416c0,0-41.808,0.56-41.808,39.024s0,47.392,0,47.392 S254.32,178.4,254.048,178.4z"></path> <path style="fill:#333333;" d="M257.952,178.4l39.856-86.416c0,0,41.808,0.56,41.808,39.024s0,47.392,0,47.392 S257.68,178.4,257.952,178.4z"></path> </g> <polygon style="fill:#0BA4E0;" points="256,91.984 227.296,91.984 256,155.552 284.704,91.984 "></polygon> <circle style="fill:#D6D6D6;" cx="428.368" cy="374.848" r="41.248"></circle> <g> <path style="fill:#333333;" d="M426.416,512l-39.856-86.416c0,0-41.808,0.56-41.808,39.024s0,47.392,0,47.392 S426.704,512,426.416,512z"></path> <path style="fill:#333333;" d="M430.32,512l39.856-86.416c0,0,41.808,0.56,41.808,39.024S512,512,512,512S430.048,512,430.32,512z"></path> </g> <polygon style="fill:#0BA4E0;" points="428.368,425.584 399.664,425.584 428.368,489.136 457.088,425.584 "></polygon> <circle style="fill:#D6D6D6;" cx="83.632" cy="374.848" r="41.248"></circle> <g> <path style="fill:#333333;" d="M81.68,512l-39.856-86.416c0,0-41.808,0.56-41.808,39.024S0,512,0,512S81.952,512,81.68,512z"></path> <path style="fill:#333333;" d="M85.584,512l39.856-86.416c0,0,41.808,0.56,41.808,39.024s0,47.392,0,47.392S85.296,512,85.584,512z "></path> </g> <g> <polygon style="fill:#0BA4E0;" points="83.632,425.584 54.912,425.584 83.632,489.136 112.336,425.584 "></polygon> <path style="fill:#0BA4E0;" d="M296.592,396.576c-14.592,7.696-29.44,10.608-47.216,10.608c-43.504,0-80.384-31.84-80.384-82.768 c0-54.656,37.936-101.872,96.832-101.872c46.16,0,77.2,32.368,77.2,76.672c0,39.792-22.288,63.136-47.216,63.136 c-10.608,0-20.432-7.168-19.632-23.344h-1.056c-9.28,15.648-21.488,23.344-37.408,23.344c-15.392,0-28.656-12.464-28.656-33.424 c0-32.896,26-62.88,62.88-62.88c11.408,0,21.488,2.384,28.384,5.568l-9.024,48.016c-3.984,20.16-0.8,29.44,7.952,29.712 c13.536,0.272,28.656-17.776,28.656-48.544c0-38.464-23.088-66.064-64.208-66.064c-43.248,0-79.584,34.224-79.584,88.08 c0,44.304,28.912,71.632,68.176,71.632c15.12,0,29.184-3.184,40.064-9.28L296.592,396.576z M282,281.968 c-2.656-0.8-7.168-1.856-13.264-1.856c-23.344,0-42.176,22.016-42.176,47.76c0,11.68,5.84,20.16,17.504,20.16 c15.392,0,29.44-19.632,32.368-36.08L282,281.968z"></path> </g> </g></svg>