<svg width="184" height="42" viewBox="0 0 184 42" fill="none" xmlns="http://www.w3.org/2000/svg">
<path d="M0.288122 35L10.1521 9.8H14.9761L24.8041 35H19.2601L14.1841 21.428C14.0401 21.044 13.8601 20.552 13.6441 19.952C13.4521 19.352 13.2481 18.716 13.0321 18.044C12.8161 17.372 12.6121 16.736 12.4201 16.136C12.2281 15.512 12.0841 14.996 11.9881 14.588L12.9601 14.552C12.8161 15.104 12.6481 15.68 12.4561 16.28C12.2881 16.856 12.1081 17.456 11.9161 18.08C11.7241 18.68 11.5201 19.268 11.3041 19.844C11.0881 20.42 10.8841 20.984 10.6921 21.536L5.61612 35H0.288122ZM4.86012 29.708L6.62412 25.352H18.1801L19.9801 29.708H4.86012ZM25.8585 35V8.36H30.9705V35H25.8585ZM100.138 38.96L90.5258 26.108L94.5938 23.264L104.098 36.044L100.138 38.96ZM92.4338 35.36C90.5858 35.36 88.8818 35.036 87.3218 34.388C85.7618 33.74 84.3938 32.84 83.2178 31.688C82.0658 30.512 81.1778 29.132 80.5538 27.548C79.9298 25.94 79.6178 24.2 79.6178 22.328C79.6178 20.432 79.9298 18.704 80.5538 17.144C81.1778 15.56 82.0658 14.18 83.2178 13.004C84.3938 11.828 85.7618 10.916 87.3218 10.268C88.8818 9.62 90.5858 9.296 92.4338 9.296C94.3058 9.296 96.0098 9.62 97.5458 10.268C99.1058 10.916 100.462 11.828 101.614 13.004C102.79 14.18 103.69 15.56 104.314 17.144C104.938 18.728 105.25 20.456 105.25 22.328C105.25 24.2 104.938 25.928 104.314 27.512C103.69 29.096 102.79 30.476 101.614 31.652C100.462 32.828 99.1058 33.74 97.5458 34.388C96.0098 35.036 94.3058 35.36 92.4338 35.36ZM92.4338 30.248C93.4898 30.248 94.4618 30.056 95.3498 29.672C96.2618 29.288 97.0418 28.736 97.6898 28.016C98.3378 27.296 98.8418 26.456 99.2018 25.496C99.5858 24.536 99.7778 23.48 99.7778 22.328C99.7778 21.176 99.5858 20.12 99.2018 19.16C98.8418 18.2 98.3378 17.372 97.6898 16.676C97.0418 15.956 96.2618 15.404 95.3498 15.02C94.4618 14.612 93.4898 14.408 92.4338 14.408C91.3778 14.408 90.4058 14.612 89.5178 15.02C88.6298 15.404 87.8498 15.956 87.1778 16.676C86.5058 17.372 85.9898 18.2 85.6298 19.16C85.2938 20.12 85.1258 21.176 85.1258 22.328C85.1258 23.48 85.2938 24.536 85.6298 25.496C85.9898 26.456 86.5058 27.296 87.1778 28.016C87.8498 28.736 88.6298 29.288 89.5178 29.672C90.4058 30.056 91.3778 30.248 92.4338 30.248ZM114.169 35.36C112.777 35.36 111.577 35.06 110.569 34.46C109.585 33.836 108.817 32.96 108.265 31.832C107.737 30.68 107.473 29.3 107.473 27.692V15.956H112.585V26.864C112.585 27.728 112.729 28.484 113.017 29.132C113.305 29.756 113.713 30.236 114.241 30.572C114.769 30.908 115.417 31.076 116.185 31.076C116.737 31.076 117.253 30.992 117.733 30.824C118.213 30.632 118.621 30.368 118.957 30.032C119.293 29.696 119.557 29.3 119.749 28.844C119.941 28.388 120.037 27.896 120.037 27.368V15.956H125.149V35H120.289L120.109 31.076L121.045 30.644C120.757 31.532 120.277 32.336 119.605 33.056C118.933 33.776 118.129 34.34 117.193 34.748C116.257 35.156 115.249 35.36 114.169 35.36ZM128.493 35V15.956H133.425L133.605 22.076L132.741 20.816C133.029 19.832 133.497 18.944 134.145 18.152C134.793 17.336 135.549 16.7 136.413 16.244C137.301 15.788 138.225 15.56 139.185 15.56C139.593 15.56 139.989 15.596 140.373 15.668C140.757 15.74 141.081 15.824 141.345 15.92L139.977 21.536C139.689 21.392 139.341 21.272 138.933 21.176C138.525 21.056 138.105 20.996 137.673 20.996C137.097 20.996 136.557 21.104 136.053 21.32C135.573 21.512 135.153 21.8 134.793 22.184C134.433 22.544 134.145 22.976 133.929 23.48C133.737 23.984 133.641 24.536 133.641 25.136V35H128.493ZM148.797 35.36C147.213 35.36 145.785 34.928 144.513 34.064C143.241 33.2 142.233 32.024 141.489 30.536C140.745 29.048 140.373 27.344 140.373 25.424C140.373 23.504 140.745 21.812 141.489 20.348C142.257 18.86 143.289 17.696 144.585 16.856C145.881 15.992 147.357 15.56 149.013 15.56C149.949 15.56 150.801 15.704 151.569 15.992C152.361 16.256 153.045 16.628 153.621 17.108C154.221 17.588 154.725 18.14 155.133 18.764C155.541 19.388 155.829 20.06 155.997 20.78L154.917 20.6V15.956H159.993V35H154.845V30.428L155.997 30.32C155.805 30.992 155.493 31.628 155.061 32.228C154.629 32.828 154.089 33.368 153.441 33.848C152.817 34.304 152.109 34.676 151.317 34.964C150.525 35.228 149.685 35.36 148.797 35.36ZM150.201 30.932C151.161 30.932 152.001 30.704 152.721 30.248C153.441 29.792 153.993 29.156 154.377 28.34C154.785 27.5 154.989 26.528 154.989 25.424C154.989 24.344 154.785 23.396 154.377 22.58C153.993 21.764 153.441 21.128 152.721 20.672C152.001 20.192 151.161 19.952 150.201 19.952C149.265 19.952 148.437 20.192 147.717 20.672C147.021 21.128 146.469 21.764 146.061 22.58C145.653 23.396 145.449 24.344 145.449 25.424C145.449 26.528 145.653 27.5 146.061 28.34C146.469 29.156 147.021 29.792 147.717 30.248C148.437 30.704 149.265 30.932 150.201 30.932ZM163.319 35V15.956H168.215L168.359 19.844L167.351 20.276C167.615 19.412 168.083 18.632 168.755 17.936C169.451 17.216 170.279 16.64 171.239 16.208C172.199 15.776 173.207 15.56 174.263 15.56C175.703 15.56 176.903 15.848 177.863 16.424C178.847 17 179.579 17.876 180.059 19.052C180.563 20.204 180.815 21.632 180.815 23.336V35H175.703V23.732C175.703 22.868 175.583 22.148 175.343 21.572C175.103 20.996 174.731 20.576 174.227 20.312C173.747 20.024 173.147 19.904 172.427 19.952C171.851 19.952 171.311 20.048 170.807 20.24C170.327 20.408 169.907 20.66 169.547 20.996C169.211 21.332 168.935 21.716 168.719 22.148C168.527 22.58 168.431 23.048 168.431 23.552V35H165.911C165.359 35 164.867 35 164.435 35C164.003 35 163.631 35 163.319 35Z" fill="white"/>
<path d="M73.2594 20.3709C73.2594 20.1893 73.1582 20.0322 73.009 19.9463C73.6205 19.3972 74.0001 18.7622 74.0001 17.8558C74.0001 15.1841 70.6681 14.6579 70.6681 13.4289C70.6681 14.6579 67.3361 15.1841 67.3361 17.8558C67.3361 18.7621 67.7156 19.3971 68.3272 19.9462C68.178 20.0321 68.0768 20.1891 68.0768 20.3709C68.0768 20.6347 68.2883 20.848 68.5545 20.8622V23.5019C68.2883 23.516 68.0768 23.7294 68.0768 23.9932C68.0768 24.257 68.2883 24.4706 68.5545 24.4847V25.8629H62.3082V23.8526H61.5913V22.4685H61.5319C62.7957 21.2656 63.5698 19.8674 63.5698 17.9156C63.5698 12.406 57.3337 10.9119 56.1821 8.59559C56.3844 8.64476 56.5927 8.67136 56.8029 8.67136C57.5878 8.67136 58.321 8.32975 58.8142 7.73413C58.9858 7.52654 59.1225 7.29538 59.2205 7.04688L59.2357 7.00826L59.2001 7.03083C58.7852 7.29364 58.3033 7.43261 57.8066 7.43261C57.2239 7.43261 56.6528 7.23475 56.1984 6.87552C55.3352 6.19221 55.0214 5.05217 55.4179 4.03853L55.433 4L55.3976 4.02247C55.1695 4.16714 54.9666 4.34592 54.7946 4.55379C54.36 5.07849 54.1604 5.73713 54.2327 6.40852C54.305 7.0799 54.6407 7.68359 55.1776 8.10831C55.3853 8.2726 55.618 8.40167 55.8644 8.49569C54.8462 10.87 48.4303 12.3272 48.4303 17.9155C48.4303 19.8673 49.2042 21.2655 50.4681 22.4684H50.4086V23.8525H49.6919V25.8629H43.4454V24.4784C43.712 24.4644 43.9241 24.2508 43.9241 23.9872C43.9241 23.7235 43.712 23.5099 43.4454 23.496V20.856C43.712 20.842 43.9241 20.6285 43.9241 20.3648C43.9241 20.1833 43.8225 20.0262 43.673 19.9405C44.2843 19.3915 44.6642 18.7565 44.6642 17.8501C44.6642 15.1784 41.3318 14.6518 41.3318 13.4228C41.3318 14.6517 38.0001 15.1784 38.0001 17.8501C38.0001 18.7566 38.3799 19.3916 38.9914 19.9405C38.842 20.0263 38.7407 20.1833 38.7407 20.3648C38.7407 20.6284 38.9526 20.8419 39.2188 20.856V23.496C38.9526 23.5101 38.7407 23.7236 38.7407 23.9872C38.7407 24.2508 38.9526 24.4643 39.2188 24.4784V25.8629H39.2158V35H43.3665V31.4773C43.3665 30.015 45.51 29.057 45.51 29.057C45.51 29.057 47.6533 30.0149 47.6533 31.4773V35H52.9945V29.9711C52.9945 27.9207 56.0002 26.5774 56.0002 26.5774C56.0002 26.5774 59.0057 27.9208 59.0057 29.9711V35H64.3468V31.4773C64.3468 30.015 66.4901 29.057 66.4901 29.057C66.4901 29.057 68.6337 30.0149 68.6337 31.4773V35H72.7843V25.8629H72.7816V24.4847C73.0477 24.4707 73.2595 24.2571 73.2595 23.9932C73.2595 23.7294 73.0477 23.5159 72.7816 23.5019V20.8623C73.0477 20.8482 73.2594 20.6347 73.2594 20.3709Z" fill="#FFD050"/>
</svg>
