<svg width="184" height="42" viewBox="0 0 184 42" fill="none" xmlns="http://www.w3.org/2000/svg">
<path d="M0.288 35L10.152 9.8H14.976L24.804 35H19.26L14.184 21.428C14.04 21.044 13.86 20.552 13.644 19.952C13.452 19.352 13.248 18.716 13.032 18.044C12.816 17.372 12.612 16.736 12.42 16.136C12.228 15.512 12.084 14.996 11.988 14.588L12.96 14.552C12.816 15.104 12.648 15.68 12.456 16.28C12.288 16.856 12.108 17.456 11.916 18.08C11.724 18.68 11.52 19.268 11.304 19.844C11.088 20.42 10.884 20.984 10.692 21.536L5.616 35H0.288ZM4.86 29.708L6.624 25.352H18.18L19.98 29.708H4.86ZM25.8584 35V8.36H30.9704V35H25.8584Z" fill="#1C8E5A"/>
<path d="M100.138 38.96L90.5257 26.108L94.5937 23.264L104.098 36.044L100.138 38.96ZM92.4337 35.36C90.5857 35.36 88.8817 35.036 87.3217 34.388C85.7617 33.74 84.3937 32.84 83.2177 31.688C82.0657 30.512 81.1777 29.132 80.5537 27.548C79.9297 25.94 79.6177 24.2 79.6177 22.328C79.6177 20.432 79.9297 18.704 80.5537 17.144C81.1777 15.56 82.0657 14.18 83.2177 13.004C84.3937 11.828 85.7617 10.916 87.3217 10.268C88.8817 9.62 90.5857 9.296 92.4337 9.296C94.3057 9.296 96.0097 9.62 97.5457 10.268C99.1057 10.916 100.462 11.828 101.614 13.004C102.79 14.18 103.69 15.56 104.314 17.144C104.938 18.728 105.25 20.456 105.25 22.328C105.25 24.2 104.938 25.928 104.314 27.512C103.69 29.096 102.79 30.476 101.614 31.652C100.462 32.828 99.1057 33.74 97.5457 34.388C96.0097 35.036 94.3057 35.36 92.4337 35.36ZM92.4337 30.248C93.4897 30.248 94.4617 30.056 95.3497 29.672C96.2617 29.288 97.0417 28.736 97.6897 28.016C98.3377 27.296 98.8417 26.456 99.2017 25.496C99.5857 24.536 99.7777 23.48 99.7777 22.328C99.7777 21.176 99.5857 20.12 99.2017 19.16C98.8417 18.2 98.3377 17.372 97.6897 16.676C97.0417 15.956 96.2617 15.404 95.3497 15.02C94.4617 14.612 93.4897 14.408 92.4337 14.408C91.3777 14.408 90.4057 14.612 89.5177 15.02C88.6297 15.404 87.8497 15.956 87.1777 16.676C86.5057 17.372 85.9897 18.2 85.6297 19.16C85.2937 20.12 85.1257 21.176 85.1257 22.328C85.1257 23.48 85.2937 24.536 85.6297 25.496C85.9897 26.456 86.5057 27.296 87.1777 28.016C87.8497 28.736 88.6297 29.288 89.5177 29.672C90.4057 30.056 91.3777 30.248 92.4337 30.248ZM114.169 35.36C112.777 35.36 111.577 35.06 110.569 34.46C109.585 33.836 108.817 32.96 108.265 31.832C107.737 30.68 107.473 29.3 107.473 27.692V15.956H112.585V26.864C112.585 27.728 112.729 28.484 113.017 29.132C113.305 29.756 113.713 30.236 114.241 30.572C114.769 30.908 115.417 31.076 116.185 31.076C116.737 31.076 117.253 30.992 117.733 30.824C118.213 30.632 118.621 30.368 118.957 30.032C119.293 29.696 119.557 29.3 119.749 28.844C119.941 28.388 120.037 27.896 120.037 27.368V15.956H125.149V35H120.289L120.109 31.076L121.045 30.644C120.757 31.532 120.277 32.336 119.605 33.056C118.933 33.776 118.129 34.34 117.193 34.748C116.257 35.156 115.249 35.36 114.169 35.36ZM128.493 35V15.956H133.425L133.605 22.076L132.741 20.816C133.029 19.832 133.497 18.944 134.145 18.152C134.793 17.336 135.549 16.7 136.413 16.244C137.301 15.788 138.225 15.56 139.185 15.56C139.593 15.56 139.989 15.596 140.373 15.668C140.757 15.74 141.081 15.824 141.345 15.92L139.977 21.536C139.689 21.392 139.341 21.272 138.933 21.176C138.525 21.056 138.105 20.996 137.673 20.996C137.097 20.996 136.557 21.104 136.053 21.32C135.573 21.512 135.153 21.8 134.793 22.184C134.433 22.544 134.145 22.976 133.929 23.48C133.737 23.984 133.641 24.536 133.641 25.136V35H128.493ZM148.797 35.36C147.213 35.36 145.785 34.928 144.513 34.064C143.241 33.2 142.233 32.024 141.489 30.536C140.745 29.048 140.373 27.344 140.373 25.424C140.373 23.504 140.745 21.812 141.489 20.348C142.257 18.86 143.289 17.696 144.585 16.856C145.881 15.992 147.357 15.56 149.013 15.56C149.949 15.56 150.801 15.704 151.569 15.992C152.361 16.256 153.045 16.628 153.621 17.108C154.221 17.588 154.725 18.14 155.133 18.764C155.541 19.388 155.829 20.06 155.997 20.78L154.917 20.6V15.956H159.993V35H154.845V30.428L155.997 30.32C155.805 30.992 155.493 31.628 155.061 32.228C154.629 32.828 154.089 33.368 153.441 33.848C152.817 34.304 152.109 34.676 151.317 34.964C150.525 35.228 149.685 35.36 148.797 35.36ZM150.201 30.932C151.161 30.932 152.001 30.704 152.721 30.248C153.441 29.792 153.993 29.156 154.377 28.34C154.785 27.5 154.989 26.528 154.989 25.424C154.989 24.344 154.785 23.396 154.377 22.58C153.993 21.764 153.441 21.128 152.721 20.672C152.001 20.192 151.161 19.952 150.201 19.952C149.265 19.952 148.437 20.192 147.717 20.672C147.021 21.128 146.469 21.764 146.061 22.58C145.653 23.396 145.449 24.344 145.449 25.424C145.449 26.528 145.653 27.5 146.061 28.34C146.469 29.156 147.021 29.792 147.717 30.248C148.437 30.704 149.265 30.932 150.201 30.932ZM163.318 35V15.956H168.214L168.358 19.844L167.35 20.276C167.614 19.412 168.082 18.632 168.754 17.936C169.45 17.216 170.278 16.64 171.238 16.208C172.198 15.776 173.206 15.56 174.262 15.56C175.702 15.56 176.902 15.848 177.862 16.424C178.846 17 179.578 17.876 180.058 19.052C180.562 20.204 180.814 21.632 180.814 23.336V35H175.702V23.732C175.702 22.868 175.582 22.148 175.342 21.572C175.102 20.996 174.73 20.576 174.226 20.312C173.746 20.024 173.146 19.904 172.426 19.952C171.85 19.952 171.31 20.048 170.806 20.24C170.326 20.408 169.906 20.66 169.546 20.996C169.21 21.332 168.934 21.716 168.718 22.148C168.526 22.58 168.43 23.048 168.43 23.552V35H165.91C165.358 35 164.866 35 164.434 35C164.002 35 163.63 35 163.318 35Z" fill="white"/>
<path d="M73.2593 20.3709C73.2593 20.1893 73.1581 20.0322 73.0089 19.9463C73.6204 19.3972 74 18.7622 74 17.8558C74 15.1841 70.668 14.6579 70.668 13.4289C70.668 14.6579 67.336 15.1841 67.336 17.8558C67.336 18.7621 67.7155 19.3971 68.3271 19.9462C68.1779 20.0321 68.0767 20.1891 68.0767 20.3709C68.0767 20.6347 68.2882 20.848 68.5544 20.8622V23.5019C68.2882 23.516 68.0767 23.7294 68.0767 23.9932C68.0767 24.257 68.2882 24.4706 68.5544 24.4847V25.8629H62.3081V23.8526H61.5912V22.4685H61.5318C62.7956 21.2656 63.5697 19.8674 63.5697 17.9156C63.5697 12.406 57.3335 10.9119 56.182 8.59559C56.3843 8.64476 56.5926 8.67136 56.8027 8.67136C57.5877 8.67136 58.3208 8.32975 58.8141 7.73413C58.9857 7.52654 59.1224 7.29538 59.2204 7.04688L59.2356 7.00826L59.2 7.03083C58.7851 7.29364 58.3032 7.43261 57.8065 7.43261C57.2237 7.43261 56.6527 7.23475 56.1983 6.87552C55.335 6.19221 55.0213 5.05217 55.4178 4.03853L55.4329 4L55.3974 4.02247C55.1694 4.16714 54.9665 4.34592 54.7945 4.55379C54.3598 5.07849 54.1602 5.73713 54.2326 6.40852C54.3049 7.0799 54.6406 7.68359 55.1775 8.10831C55.3852 8.2726 55.6179 8.40167 55.8643 8.49569C54.8461 10.87 48.4302 12.3272 48.4302 17.9155C48.4302 19.8673 49.2041 21.2655 50.4679 22.4684H50.4085V23.8525H49.6918V25.8629H43.4453V24.4784C43.7118 24.4644 43.9239 24.2508 43.9239 23.9872C43.9239 23.7235 43.7118 23.5099 43.4453 23.496V20.856C43.7118 20.842 43.9239 20.6285 43.9239 20.3648C43.9239 20.1833 43.8224 20.0262 43.6729 19.9405C44.2842 19.3915 44.664 18.7565 44.664 17.8501C44.664 15.1784 41.3316 14.6518 41.3316 13.4228C41.3316 14.6517 38 15.1784 38 17.8501C38 18.7566 38.3798 19.3916 38.9913 19.9405C38.8419 20.0263 38.7406 20.1833 38.7406 20.3648C38.7406 20.6284 38.9525 20.8419 39.2186 20.856V23.496C38.9525 23.5101 38.7406 23.7236 38.7406 23.9872C38.7406 24.2508 38.9525 24.4643 39.2186 24.4784V25.8629H39.2157V35H43.3664V31.4773C43.3664 30.015 45.5099 29.057 45.5099 29.057C45.5099 29.057 47.6532 30.0149 47.6532 31.4773V35H52.9943V29.9711C52.9943 27.9207 56 26.5774 56 26.5774C56 26.5774 59.0056 27.9208 59.0056 29.9711V35H64.3467V31.4773C64.3467 30.015 66.49 29.057 66.49 29.057C66.49 29.057 68.6335 30.0149 68.6335 31.4773V35H72.7842V25.8629H72.7815V24.4847C73.0476 24.4707 73.2593 24.2571 73.2593 23.9932C73.2593 23.7294 73.0476 23.5159 72.7815 23.5019V20.8623C73.0475 20.8482 73.2593 20.6347 73.2593 20.3709Z" fill="#FFD050"/>
</svg>
